<svg xmlns="http://www.w3.org/2000/svg" width="38.289" height="25.874" viewBox="0 0 38.289 25.874">
  <path fill="rgb(255,255,255)" fill-rule="evenodd" d="M19.60556221.00298023C19.54087448.01591778 19.5.07591773 19.5.17285526v1.59375h-2.4375c-.59737396 0-1.06593704.1929375-1.48837471.61518752L11.27925014 6.6766677l1.0546875 1.06650019 4.30087567-4.30087519c.01687431-.01687479.40368652-.17587495.42768669-.17587495H19.5v1.59375024c0 .1552496.10593796.21899986.2401886.140625l4.0196228-2.34375024c.13425064-.07818746.13425064-.2028749 0-.28125l-4.0196228-2.34375c-.05043793-.02925002-.09600067-.03693747-.13481331-.02925002l.00018692.00018751zM0 1.76660526v1.50000012h3.9375c.02437496 0 .41062546.15862488.42768764.1758747L15.5741253 14.65141774c.4222498.4222498.89099884.61518765 1.48837471.61518765H19.5v1.59375c0 .15524864.10593796.21899986.2401867.140625l4.0196266-2.34375c.13424874-.078187.13424874-.20287514 0-.28125l-4.0196266-2.34375c-.13424874-.078187-.2401867-.0146246-.2401867.140625v1.59375h-2.4375c-.02400017 0-.4109993-.1590004-.4276867-.17587471L5.42587472 2.38179278c-.4222498-.42225003-.89118767-.61518752-1.48837471-.61518752H0zm4.36537552 11.82431328L8.66025066 9.3018551l.00018692.00018787 1.0546875 1.0546875-4.28906154 4.29487515c-.42243767.42224979-.89137554.61518764-1.48837567.61518764h-3.9375v-1.5h3.9375c.02418805 0 .41043759-.15862465.42768765-.1758747z"/>
</svg>
